<svg xmlns="http://www.w3.org/2000/svg" version="1.1" xmlns:xlink="http://www.w3.org/1999/xlink" viewBox="0 0 200 200"><rect width="200" height="200" fill="url('#gradient')"></rect><defs><linearGradient id="gradient" gradientTransform="rotate(45 0.5 0.5)"><stop offset="0%" stop-color="#b11ed1"></stop><stop offset="100%" stop-color="#e1ac41"></stop></linearGradient></defs><g><g fill="#ffffff" transform="matrix(4.076974120769742,0,0,4.076974120769742,5.634017403345666,121.87417345673498)" stroke="#ffffff" stroke-width="0.2"><path d="M6.69-4.82L4.50-4.82L4.50 0L1.07 0L1.07-14.22L6.75-14.22Q8.38-14.22 9.63-13.62Q10.89-13.02 11.58-11.91Q12.27-10.80 12.27-9.39L12.27-9.39Q12.27-7.31 10.78-6.07Q9.29-4.82 6.69-4.82L6.69-4.82ZM4.50-11.57L4.50-7.47L6.75-7.47Q7.74-7.47 8.27-7.97Q8.79-8.47 8.79-9.38L8.79-9.38Q8.79-10.37 8.25-10.97Q7.71-11.56 6.79-11.57L6.79-11.57L4.50-11.57ZM17.16-15L17.16-9.43Q18.21-10.76 19.85-10.76L19.85-10.76Q21.60-10.76 22.49-9.73Q23.38-8.69 23.40-6.67L23.40-6.67L23.40 0L20.10 0L20.10-6.59Q20.10-7.43 19.76-7.83Q19.41-8.22 18.59-8.22L18.59-8.22Q17.58-8.22 17.16-7.58L17.16-7.58L17.16 0L13.87 0L13.87-15L17.16-15ZM27.78-10.57L29.45-4.61L31.21-10.57L34.74-10.57L30.43 1.77L30.24 2.22Q29.33 4.27 27.00 4.27L27.00 4.27Q26.36 4.27 25.64 4.07L25.64 4.07L25.64 1.72L26.07 1.72Q26.77 1.72 27.13 1.52Q27.50 1.32 27.68 0.80L27.68 0.80L27.94 0.10L24.27-10.57L27.78-10.57ZM35.04-4.82L35.03-5.38Q35.03-6.96 35.64-8.20Q36.26-9.43 37.41-10.10Q38.56-10.76 40.12-10.76L40.12-10.76Q42.49-10.76 43.86-9.29Q45.22-7.82 45.22-5.29L45.22-5.29L45.22-5.18Q45.22-2.71 43.85-1.25Q42.48 0.20 40.14 0.20L40.14 0.20Q37.88 0.20 36.51-1.16Q35.15-2.51 35.04-4.82L35.04-4.82ZM38.33-5.77L38.32-5.18Q38.32-3.71 38.78-3.03Q39.24-2.34 40.14-2.34L40.14-2.34Q41.89-2.34 41.93-5.05L41.93-5.05L41.93-5.38Q41.93-8.22 40.12-8.22L40.12-8.22Q38.47-8.22 38.33-5.77L38.33-5.77Z"></path></g></g></svg>